# xmcd
#
# Track frame offsets:
#	150
#	17810
#	32587
#	54030
#	70007
#	88975
#	111462
#	126470
#	144870
#	159422
#	176907
#	193137
#	206870
#
# Disc length: 3013 seconds
#
# Revision: 1
# Processed by: cddbd v1.4PL0 Copyright (c) Steve Scherf et al.
# Submitted via: EasyCDDAExtractor 5.1.0
#
DISCID=bc0bc30d
DTITLE=Joanna Janét - destination LOVE
DYEAR=2002
DGENRE=Country
TTITLE0=Destination Love
TTITLE1=A Song to Sing
TTITLE2=All That I Remember
TTITLE3=Ain't No Glory On The Ground
TTITLE4=Breakout
TTITLE5=Is It Okay To Love
TTITLE6=Since I've Seen You Last
TTITLE7=A Little At A Time
TTITLE8=Another Perfect Day
TTITLE9=This Time Tomorrow
TTITLE10=You Make It Easy
TTITLE11=Look, Smile, Talk, Kiss, Love, Leave, Cry
TTITLE12=If I Could Have My Way
EXTD=
EXTT0=
EXTT1=
EXTT2=
EXTT3=
EXTT4=
EXTT5=
EXTT6=
EXTT7=
EXTT8=
EXTT9=
EXTT10=
EXTT11=
EXTT12=
PLAYORDER=
